<?xml version="1.0" encoding="UTF-8"?>
<svg id="Layer_1" xmlns="http://www.w3.org/2000/svg" viewBox="0 0 1375.45 260.61"><g><polygon points="309.45 72.84 358.15 72.84 358.15 226 394.8 226 394.8 72.84 443.5 72.84 443.5 43.26 309.45 43.26 309.45 72.84" fill="#351e90"/><path d="m659.95,101.64c-4.89-6.63-11.39-12.13-19.51-16.49-8.12-4.36-17.59-6.55-28.41-6.55-12.39,0-23.61,3.06-33.64,9.16-10.04,6.11-17.98,14.84-23.82,26.18-5.85,11.35-8.77,24.35-8.77,39.01s2.92,27.97,8.77,39.4c5.84,11.43,13.78,20.29,23.82,26.57,10.03,6.28,21.16,9.42,33.38,9.42,10.82,0,20.38-2.22,28.67-6.68,8.29-4.45,14.79-10.08,19.51-16.89v21.21h36.91V80.96h-36.91v20.68Zm-5.24,74.74c-3.49,6.37-8.2,11.26-14.14,14.66-5.94,3.4-12.31,5.1-19.11,5.1s-12.87-1.74-18.72-5.24c-5.85-3.49-10.56-8.51-14.14-15.05-3.58-6.54-5.37-14.18-5.37-22.91s1.79-16.27,5.37-22.65c3.58-6.37,8.25-11.21,14.01-14.53,5.76-3.31,12.04-4.97,18.85-4.97s13.18,1.7,19.11,5.11c5.93,3.4,10.64,8.29,14.14,14.66,3.49,6.37,5.24,14.01,5.24,22.91s-1.75,16.54-5.24,22.91Z" fill="#351e90"/><path d="m845.7,87.76c-10.04-6.11-21.25-9.16-33.64-9.16-10.65,0-20.12,2.19-28.41,6.55-8.29,4.36-14.79,10.04-19.51,17.02V32.26h-36.65v193.73h36.65v-20.68c4.88,6.81,11.39,12.35,19.51,16.62,8.12,4.28,17.58,6.41,28.41,6.41,12.39,0,23.6-3.14,33.64-9.42,10.03-6.28,17.97-15.14,23.82-26.57,5.85-11.43,8.77-24.57,8.77-39.4s-2.92-27.88-8.77-39.14c-5.85-11.26-13.79-19.94-23.82-26.05Zm-10.21,88.23c-3.58,6.46-8.29,11.43-14.14,14.92-5.85,3.49-12.17,5.24-18.98,5.24s-12.87-1.7-18.72-5.1c-5.85-3.4-10.56-8.33-14.14-14.79-3.58-6.45-5.37-14.05-5.37-22.78s1.79-16.32,5.37-22.78c3.58-6.46,8.29-11.39,14.14-14.79,5.84-3.4,12.08-5.11,18.72-5.11s13.13,1.66,18.98,4.97c5.85,3.32,10.56,8.16,14.14,14.53,3.58,6.37,5.37,13.92,5.37,22.65s-1.79,16.58-5.37,23.04Z" fill="#351e90"/><path d="m1003.17,87.89c-11.35-6.19-24-9.29-37.96-9.29s-26.62,3.1-37.96,9.29c-11.35,6.2-20.29,14.97-26.83,26.31-6.55,11.35-9.82,24.44-9.82,39.27s3.18,27.93,9.56,39.27c6.37,11.35,15.14,20.12,26.31,26.31,11.17,6.2,23.73,9.29,37.7,9.29s26.92-3.1,38.36-9.29c11.43-6.19,20.51-14.96,27.23-26.31,6.72-11.34,10.08-24.43,10.08-39.27s-3.27-27.92-9.82-39.27c-6.55-11.34-15.49-20.11-26.84-26.31Zm-6.28,89.14c-3.49,6.46-8.16,11.3-14.01,14.53-5.85,3.23-12.09,4.84-18.72,4.84-10.47,0-19.16-3.71-26.05-11.12-6.9-7.42-10.34-18.02-10.34-31.81s3.53-24.39,10.6-31.81c7.07-7.42,15.84-11.13,26.31-11.13s19.33,3.71,26.57,11.13c7.24,7.42,10.87,18.02,10.87,31.81,0,9.25-1.75,17.11-5.24,23.56Z" fill="#351e90"/><path d="m1166.01,101.11c-5.06-6.81-11.87-12.26-20.42-16.36-8.55-4.1-17.54-6.15-26.97-6.15-12.39,0-23.65,3.06-33.77,9.16-10.13,6.11-18.11,14.84-23.95,26.18-5.85,11.35-8.77,24.35-8.77,39.01s2.92,27.97,8.77,39.4c5.84,11.43,13.83,20.29,23.95,26.57,10.12,6.28,21.29,9.42,33.51,9.42,10.82,0,20.33-2.18,28.54-6.54,8.2-4.36,14.57-10.12,19.11-17.28v21.47h37.18V32.26h-37.18v68.85Zm-4.97,75.27c-3.49,6.37-8.2,11.26-14.14,14.66-5.94,3.4-12.31,5.1-19.11,5.1s-12.87-1.74-18.72-5.24c-5.85-3.49-10.56-8.51-14.14-15.05-3.58-6.54-5.37-14.18-5.37-22.91s1.79-16.27,5.37-22.65c3.58-6.37,8.25-11.21,14.01-14.53,5.76-3.31,12.04-4.97,18.85-4.97s13.18,1.7,19.11,5.11c5.93,3.4,10.64,8.29,14.14,14.66,3.49,6.37,5.24,14.01,5.24,22.91s-1.75,16.54-5.24,22.91Z" fill="#351e90"/><path d="m1338.54,80.96v20.68c-4.89-6.63-11.39-12.13-19.51-16.49-8.12-4.36-17.59-6.55-28.41-6.55-12.39,0-23.61,3.06-33.64,9.16-10.04,6.11-17.98,14.84-23.82,26.18-5.85,11.35-8.77,24.35-8.77,39.01s2.92,27.97,8.77,39.4c5.84,11.43,13.78,20.29,23.82,26.57,10.03,6.28,21.16,9.42,33.38,9.42,10.82,0,20.38-2.22,28.67-6.68,8.29-4.45,14.79-10.08,19.51-16.89v21.21h36.91V80.96h-36.91Zm-5.24,95.43c-3.49,6.37-8.2,11.26-14.14,14.66-5.94,3.4-12.31,5.1-19.11,5.1s-12.87-1.74-18.72-5.24c-5.85-3.49-10.56-8.51-14.14-15.05-3.58-6.54-5.37-14.18-5.37-22.91s1.79-16.27,5.37-22.65c3.58-6.37,8.25-11.21,14.01-14.53,5.76-3.31,12.04-4.97,18.85-4.97s13.18,1.7,19.11,5.11c5.93,3.4,10.64,8.29,14.14,14.66,3.49,6.37,5.24,14.01,5.24,22.91s-1.75,16.54-5.24,22.91Z" fill="#351e90"/><polygon points="460.15 80.96 460.15 226 496.8 226 496.8 110.69 535.86 110.69 535.86 80.96 460.15 80.96" fill="#351e90"/></g><g><polygon points="135.76 260.61 93.2 90.63 178.33 90.63 135.76 260.61" fill="#351e90"/><polygon points="230.72 72.53 39.07 72.53 0 0 267.33 0 230.72 72.53" fill="#351e90"/></g></svg>